<?xml version="1.0" encoding="utf-8"?>
<!-- Generator: Adobe Illustrator 17.0.0, SVG Export Plug-In . SVG Version: 6.00 Build 0)  -->
<!DOCTYPE svg PUBLIC "-//W3C//DTD SVG 1.1//EN" "http://www.w3.org/Graphics/SVG/1.1/DTD/svg11.dtd">
<svg version="1.1" id="Layer_1" xmlns="http://www.w3.org/2000/svg" xmlns:xlink="http://www.w3.org/1999/xlink" x="0px" y="0px"
	 width="800.069px" height="182.162px" viewBox="0 0 800.069 182.162" enable-background="new 0 0 800.069 182.162"
	 xml:space="preserve">
<path fill="#FFFFFF" d="M801.069,171c-1.098,2.705-1.923,5.572-3.402,8.05c-0.817,1.369-2.628,2.306-4.184,3.013
	c-0.967,0.439-2.295,0.084-3.462,0.084c-221.586,0-443.172-0.021-664.758,0.131c-5.174,0.004-7.427-1.479-9.221-6.325
	c-9.422-25.442-19.327-50.705-28.881-76.1c-1.383-3.677-2.796-4.523-7.075-4.417c-9.99,0.248-13.985,4.971-16.749,14.215
	c-6.815,22.789-15.002,45.166-22.428,67.778c-1.194,3.637-2.909,4.85-6.719,4.745c-10.132-0.278-20.276-0.094-31.098-0.094
	c2.371-6.846,4.523-13.1,6.701-19.344C28.324,109.617,46.858,56.501,65.384,3.381C65.655,2.602,65.843,1.794,66.069,1
	c11,0,22,0,33,0C91.98,23.382,84.891,45.764,77.717,68.417c9.573-0.309,16.926-2.804,23.577-9.236
	c14.116-13.653,29.116-26.39,43.692-39.57c6.769-6.121,13.394-12.402,20.084-18.61c197.333,0,394.667,0,592,0
	c-0.594,1.36-1.287,2.685-1.769,4.084c-18.036,52.335-36.056,104.676-54.06,157.022c-0.683,1.985-1.19,4.031-1.964,6.682
	c2.554,0,4.508-0.004,6.463,0.001c31.777,0.07,63.554,0.141,95.331,0.212C801.069,169.667,801.069,170.333,801.069,171z
	 M718.531,11.741c-4.091,0-6.228,0-8.365,0c-72.309-0.001-144.618-0.002-216.927-0.002c-105.631-0.001-211.262-0.016-316.893,0.084
	c-2.447,0.002-5.54,0.575-7.239,2.099c-18.351,16.464-36.435,33.224-54.726,49.754c-2.593,2.343-2.667,4.319-1.485,7.349
	c12.462,31.946,24.856,63.92,37.064,95.964c1.425,3.74,3.239,4.923,7.226,4.92c168.61-0.109,337.22-0.11,505.83,0
	c4.026,0.003,5.765-1.182,7.063-5.006c14.815-43.663,30.009-87.198,44.602-130.934C717.13,28.622,717.209,20.486,718.531,11.741z"/>
<path fill="#FFFFFF" d="M588.727,84.106c17.921,0,35.047,0,52.174,0c-0.148,8.868-1.984,10.777-10.028,10.777
	c-13.496,0.001-26.998,0.216-40.485-0.126c-4.216-0.107-5.728,1.433-6.854,5.145c-2.886,9.51-6.175,18.898-9.505,28.947
	c17.997,0,35.264,0,53.422,0c-1.109,3.549-1.833,6.541-3.039,9.323c-0.371,0.855-2.057,1.612-3.144,1.616
	c-25.143,0.09-50.286,0.069-76.199,0.069c1.227-3.925,2.242-7.353,3.367-10.744c9.271-27.964,18.629-55.899,27.768-83.907
	c1.214-3.719,2.733-5.191,6.912-5.145c22.657,0.25,45.319,0.12,67.979,0.121c1.614,0,3.229,0,5.65,0
	c-1.159,3.662-1.746,6.803-3.196,9.476c-0.592,1.091-3.05,1.621-4.666,1.634c-14.828,0.121-29.659,0.174-44.486-0.003
	c-3.523-0.042-5.341,0.866-6.41,4.46C595.244,64.972,592.043,74.06,588.727,84.106z"/>
<path fill="#FFFFFF" d="M287.603,139.861c0.615-2.235,0.973-3.807,1.477-5.331c9.94-30.01,19.913-60.009,29.822-90.028
	c0.823-2.494,1.433-4.419,4.864-4.398c24.317,0.151,48.635,0.083,72.953,0.103c0.634,0.001,1.267,0.198,2.487,0.401
	c-0.958,3.01-1.465,6.035-2.904,8.52c-0.724,1.251-3.133,2.126-4.792,2.144c-14.822,0.161-29.651,0.275-44.469-0.024
	c-4.171-0.084-5.822,1.383-6.947,5.152c-2.702,9.055-5.814,17.987-9.101,28.008c17.751,0,34.783,0,52.643,0
	c-1.043,3.082-1.92,5.052-2.358,7.115c-0.647,3.041-2.359,3.836-5.336,3.783c-14.487-0.259-28.981-0.167-43.464-0.54
	c-3.915-0.101-5.474,1.261-6.555,4.876c-2.849,9.52-6.133,18.911-9.494,29.116c18.432,0,36.131,0,53.68,0
	c0.226,0.912,0.428,1.251,0.36,1.522c-2.413,9.583-2.417,9.582-12.419,9.582c-21.486,0-42.973,0-64.459,0
	C291.81,139.861,290.027,139.861,287.603,139.861z"/>
<path fill="#FFFFFF" d="M525.471,55.864c-6.694,0.187-13.199,0.891-19.746-2.589c-7.66-4.072-16.202-4.977-24.75-2.542
	c-6.484,1.847-10.686,6.109-11.751,12.866c-0.974,6.177,2.871,9.981,7.429,13.094c4.395,3.001,9.048,5.625,13.454,8.612
	c13.981,9.48,16.473,22.569,6.595,36.506c-9.625,13.579-23.744,18.788-39.697,19.689c-9.387,0.53-18.66-0.672-27.24-4.869
	c-7.196-3.52-12.364-8.799-13.768-17.748c5.819,0.148,10.877-1.318,15.745,3.847c7.649,8.116,23.21,10.037,33.082,4.795
	c3.203-1.701,6.171-4.632,8.132-7.711c3.525-5.533,2.5-10.538-2.703-14.548c-4.198-3.235-8.864-5.879-13.41-8.641
	c-18.771-11.406-20.916-28.705-5.113-44.196c13.291-13.029,29.885-15.249,47.353-12.802c5.819,0.815,11.719,2.765,16.963,5.419
	c4.026,2.037,7.081,5.992,10.569,9.094C526.233,54.715,525.852,55.29,525.471,55.864z"/>
<path fill="#FFFFFF" d="M244.33,40.18c-2.857,8.63-5.508,16.635-8.158,24.64c-7.794,23.541-15.67,47.054-23.291,70.651
	c-1.142,3.537-2.819,4.62-6.378,4.47c-6.467-0.272-12.954-0.077-20.28-0.077c0.605-2.021,1.013-3.519,1.501-4.991
	c9.943-30.016,19.96-60.008,29.759-90.072c1.194-3.664,2.875-4.913,6.69-4.713C230.621,40.425,237.098,40.18,244.33,40.18z"/>
</svg>
